<svg xmlns="http://www.w3.org/2000/svg" width="256" height="256" viewBox="0 0 256 256">
  <defs>
    <linearGradient id="g" x1="0" x2="1" y1="0" y2="1">
      <stop offset="0" stop-color="#0ea5e9"/>
      <stop offset="1" stop-color="#22c55e"/>
    </linearGradient>
  </defs>
  <rect x="16" y="16" width="224" height="224" rx="48" fill="url(#g)"/>
  <path d="M84 104c0-20 16-36 36-36h16c20 0 36 16 36 36v64c0 12-10 22-22 22H106c-12 0-22-10-22-22v-64z" fill="rgba(255,255,255,0.92)"/>
  <path d="M96 104c0-13 11-24 24-24h16c13 0 24 11 24 24" fill="none" stroke="rgba(15,23,42,0.35)" stroke-width="8" stroke-linecap="round"/>
  <circle cx="112" cy="140" r="6" fill="rgba(15,23,42,0.35)"/>
  <circle cx="144" cy="140" r="6" fill="rgba(15,23,42,0.35)"/>
  <path d="M116 168h24" stroke="rgba(15,23,42,0.35)" stroke-width="8" stroke-linecap="round"/>
</svg>
